Coordinates
version=1
nRows=16
nColumns=63
inDegrees=yes

Units are S.I. units (second, meters, Newtons, ...)
If the header above contains a line with 'inDegrees', this indicates whether rotational values are in degrees (yes) or radians (no).

endheader
time	pelvis_tilt	pelvis_list	pelvis_rotation	pelvis_tx	pelvis_ty	pelvis_tz	hip_flexion_r	hip_adduction_r	hip_rotation_r	knee_angle_r	knee_angle_r_beta	ankle_angle_r	subtalar_angle_r	mtp_angle_r	hip_flexion_l	hip_adduction_l	hip_rotation_l	knee_angle_l	knee_angle_l_beta	ankle_angle_l	subtalar_angle_l	mtp_angle_l	L5_S1_Flex_Ext	L5_S1_Lat_Bending	L5_S1_axial_rotation	L4_L5_Flex_Ext	L4_L5_Lat_Bending	L4_L5_axial_rotation	L3_L4_Flex_Ext	L3_L4_Lat_Bending	L3_L4_axial_rotation	L2_L3_Flex_Ext	L2_L3_Lat_Bending	L2_L3_axial_rotation	L1_L2_Flex_Ext	L1_L2_Lat_Bending	L1_L2_axial_rotation	L1_T12_Flex_Ext	L1_T12_Lat_Bending	L1_T12_axial_rotation	Abs_r3	Abs_r2	Abs_r1	Abs_t1	Abs_t2	neck_flexion	neck_bending	neck_rotation	arm_flex_r	arm_add_r	arm_rot_r	elbow_flex_r	pro_sup_r	wrist_flex_r	wrist_dev_r	arm_flex_l	arm_add_l	arm_rot_l	elbow_flex_l	pro_sup_l	wrist_flex_l	wrist_dev_l
18.203390	2.022678	-6.974427	75.670453	0.133193	1.066609	0.106874	16.186298	1.799934	-1.607031	17.115016	0.298713	16.551434	3.516141	0.000000	10.282354	-3.209142	-30.137625	14.177077	0.247437	21.256856	15.391155	0.000000	0.000003	-0.372768	1.645394	0.000005	-0.495781	1.748231	0.000004	-0.906347	1.748231	0.000003	-0.906347	1.439720	0.000002	-0.760148	1.336883	0.000001	-0.577417	1.234045	0.000018	-4.216822	9.151187	0.000000	0.000000	14.472178	6.560662	-9.611592	52.759448	-51.472029	3.141681	111.340047	72.995601	-5.198727	13.265207	21.639544	-12.193440	5.489125	108.548329	80.905126	-6.416507	24.118180
18.220339	1.974818	-6.717972	75.635126	0.132878	1.066839	0.105611	15.893778	1.653457	-1.408804	17.255363	0.301163	16.626466	3.380896	0.000000	10.035599	-3.121748	-30.359862	14.377402	0.250933	21.593003	15.703889	0.000000	0.005429	-0.374165	1.596503	0.010082	-0.497639	1.696285	0.008919	-0.909744	1.696285	0.006205	-0.909744	1.396940	0.005041	-0.762996	1.297159	0.003102	-0.579581	1.197377	0.038778	-4.232624	8.879272	0.000000	0.000000	14.353485	6.278563	-9.216322	51.406660	-50.977834	2.259988	112.435361	73.589971	-4.828602	14.506564	20.490918	-12.125451	3.529723	110.072095	81.585756	-6.645055	23.846487
18.237288	1.940810	-6.475566	75.645972	0.132476	1.067010	0.104309	15.584574	1.509870	-1.286299	17.353928	0.302883	16.664297	3.250669	0.000000	9.801951	-3.033025	-30.486507	14.578373	0.254441	21.877764	15.970557	0.000000	0.005612	-0.376082	1.582962	0.010422	-0.500189	1.681898	0.009220	-0.914406	1.681898	0.006414	-0.914406	1.385092	0.005211	-0.766907	1.286157	0.003207	-0.582551	1.187222	0.040087	-4.254317	8.803962	0.000000	0.000000	14.160978	6.048708	-9.028241	49.546750	-51.048505	0.373994	113.889884	74.600304	-4.486787	16.009161	19.738463	-12.076538	1.403557	111.753563	82.506352	-6.934442	23.431930
18.254237	1.943396	-6.243614	75.725138	0.131867	1.067139	0.102955	15.242709	1.381525	-1.276528	17.397650	0.303646	16.673429	3.158906	0.000000	9.575193	-2.956435	-30.488570	14.777260	0.257912	22.107025	16.157374	0.000000	0.000906	-0.370268	1.594159	0.001683	-0.492456	1.693794	0.001489	-0.900269	1.693794	0.001036	-0.900269	1.394889	0.000842	-0.755050	1.295254	0.000518	-0.573545	1.195619	0.006473	-4.188542	8.866235	0.000000	0.000000	13.876770	5.722360	-8.838332	47.721704	-51.626810	-1.973929	115.628008	75.941857	-4.535129	17.520494	19.315650	-12.155665	-0.939277	113.653098	83.643499	-7.248722	22.925274
18.271186	1.973315	-6.021684	75.850849	0.131107	1.067235	0.101550	14.877026	1.266047	-1.352050	17.399813	0.303684	16.662593	3.098153	0.000000	9.346055	-2.885956	-30.403394	14.958438	0.261074	22.281089	16.266480	0.000000	-0.007805	-0.356656	1.636007	-0.014495	-0.474352	1.738257	-0.012823	-0.867173	1.738257	-0.008921	-0.867173	1.431506	-0.007248	-0.727293	1.329256	-0.004460	-0.552460	1.227005	-0.055753	-4.034563	9.098979	0.000000	0.000000	13.520452	5.262606	-8.638672	46.320553	-52.639160	-4.469290	117.585425	77.576220	-5.059454	18.892128	19.281452	-12.464056	-3.416120	115.774556	84.922716	-7.557710	22.354147
18.288136	2.032622	-5.818632	76.051374	0.130197	1.067300	0.100068	14.489388	1.166297	-1.518677	17.354708	0.302897	16.620611	3.019721	0.000000	9.128257	-2.823774	-30.201220	15.124203	0.263967	22.417266	16.297595	0.000000	-0.018633	-0.334143	1.697911	-0.034603	-0.444410	1.804031	-0.030612	-0.812434	1.804031	-0.021296	-0.812434	1.485672	-0.017303	-0.681384	1.379553	-0.010647	-0.517587	1.273434	-0.133094	-3.779888	9.443274	0.000000	0.000000	13.119820	4.634239	-8.390972	45.702607	-53.932967	-6.774682	119.683726	79.482747	-6.135206	20.058166	19.680132	-13.138526	-5.964859	118.088633	86.350262	-7.894402	21.601854
18.305085	2.079288	-5.630430	76.304376	0.129258	1.067364	0.098540	14.103225	1.047495	-1.759826	17.296923	0.301888	16.559817	2.925230	0.000000	8.916086	-2.738871	-29.956572	15.257100	0.266287	22.504025	16.313157	0.000000	-0.030891	-0.310154	1.775475	-0.057368	-0.412504	1.886442	-0.050751	-0.754107	1.886442	-0.035306	-0.754107	1.553541	-0.028686	-0.632465	1.442574	-0.017651	-0.480428	1.331606	-0.220653	-3.508519	9.874660	0.000000	0.000000	12.692510	3.924774	-8.144734	46.048961	-55.336304	-8.730022	121.770741	81.557725	-7.563810	20.762157	20.611526	-14.299030	-8.525941	120.521923	87.528985	-8.200447	20.720226
18.322034	2.119915	-5.463958	76.623762	0.128298	1.067441	0.096966	13.721507	0.924157	-2.045297	17.218969	0.300528	16.463962	2.744204	0.000000	8.720160	-2.643769	-29.670853	15.363896	0.268151	22.561867	16.351152	0.000000	-0.043571	-0.283387	1.851721	-0.080916	-0.376905	1.967454	-0.071583	-0.689028	1.967454	-0.049797	-0.689028	1.620256	-0.040460	-0.577883	1.504523	-0.024896	-0.438967	1.388791	-0.311223	-3.205733	10.298717	0.000000	0.000000	12.219596	3.145201	-7.815662	47.563263	-56.689022	-10.103346	123.745645	83.691652	-9.253275	21.163398	22.134693	-16.075939	-11.045991	122.970783	88.265652	-8.514683	19.628124
18.338983	2.157251	-5.318266	77.014463	0.127299	1.067554	0.095349	13.354407	0.789422	-2.422610	17.142345	0.299190	16.359091	2.554135	0.000000	8.539209	-2.532917	-29.284526	15.430212	0.269308	22.610058	16.355845	0.000000	-0.057358	-0.253961	1.921863	-0.106519	-0.337768	2.041979	-0.094233	-0.617480	2.041979	-0.065554	-0.617480	1.681630	-0.053262	-0.517877	1.561513	-0.032774	-0.393385	1.441397	-0.409701	-2.872854	10.688823	0.000000	0.000000	11.673058	2.345291	-7.444123	50.323569	-57.919768	-10.784565	125.549601	85.897191	-11.106685	21.440050	24.366429	-18.501024	-13.346299	125.302779	88.746242	-9.027867	18.249556
18.355932	2.196750	-5.190094	77.486274	0.126211	1.067734	0.093707	13.002705	0.645028	-2.907446	17.066102	0.297860	16.266988	2.396748	0.000000	8.375992	-2.408923	-28.783171	15.456849	0.269773	22.628342	16.310683	0.000000	-0.073014	-0.221351	1.976439	-0.135595	-0.294397	2.099966	-0.119955	-0.538194	2.099966	-0.083448	-0.538194	1.729384	-0.067801	-0.451380	1.605857	-0.041720	-0.342873	1.482329	-0.521533	-2.503971	10.992360	0.000000	0.000000	11.011837	1.597185	-7.009610	54.312829	-58.978552	-10.709694	127.105015	88.139411	-12.925788	21.662767	27.442951	-21.570635	-15.246419	127.386516	88.941335	-9.775553	16.704924
18.372881	2.243609	-5.064234	78.020527	0.125039	1.067987	0.092098	12.672253	0.517251	-3.353100	17.016832	0.297000	16.214207	2.119290	0.000000	8.217919	-2.287339	-28.245475	15.454425	0.269731	22.652235	16.299390	0.000000	-0.094458	-0.185119	2.005148	-0.175418	-0.246209	2.130470	-0.155185	-0.450100	2.130470	-0.107956	-0.450100	1.754505	-0.087714	-0.377496	1.629183	-0.053973	-0.286750	1.503861	-0.674705	-2.094109	11.152033	0.000000	0.000000	10.232675	0.958223	-6.437838	59.544500	-59.766324	-9.802286	128.328339	89.547017	-14.295584	21.960400	31.452247	-25.183409	-16.649910	129.157293	88.760526	-10.516297	15.175220
18.389831	2.318278	-4.936366	78.604372	0.123726	1.068322	0.090526	12.360595	0.411265	-3.842236	16.995452	0.296627	16.255199	1.903801	0.000000	8.057431	-2.180388	-27.633953	15.416719	0.269072	22.691277	16.260622	0.000000	-0.121923	-0.143676	2.017785	-0.226423	-0.191089	2.143897	-0.200307	-0.349334	2.143897	-0.139346	-0.349334	1.765562	-0.113218	-0.292984	1.639450	-0.069667	-0.222554	1.513339	-0.870883	-1.625292	11.222316	0.000000	0.000000	9.326909	0.496866	-5.818610	66.010872	-60.362291	-7.941776	129.216993	90.282177	-15.187991	22.390612	36.423377	-29.066240	-17.398921	130.584598	88.660615	-11.251201	14.009017
18.406780	2.420642	-4.807793	79.257080	0.122237	1.068700	0.089010	12.081414	0.318808	-4.401903	17.028267	0.297199	16.448515	1.789945	0.000000	7.914260	-2.093401	-26.942509	15.378935	0.268413	22.767585	16.206658	0.000000	-0.153783	-0.098128	2.009222	-0.285591	-0.130510	2.134798	-0.252651	-0.238588	2.134798	-0.175759	-0.238588	1.758069	-0.142803	-0.200102	1.632493	-0.087872	-0.152000	1.506916	-1.098459	-1.110040	11.174689	0.000000	0.000000	8.295876	0.264686	-5.154670	73.604695	-60.760799	-5.077600	129.749794	90.307559	-15.546750	23.021273	42.287411	-32.973378	-17.426094	131.630851	88.700966	-11.880049	13.379646
18.423729	2.566634	-4.666684	79.953847	0.120589	1.069113	0.087542	11.815887	0.263939	-4.995454	17.098662	0.298428	16.803012	1.780887	0.000000	7.772666	-2.046151	-26.196529	15.348748	0.267886	22.902514	16.129671	0.000000	-0.189887	-0.046068	1.971356	-0.352639	-0.061270	2.094566	-0.311965	-0.112009	2.094566	-0.217022	-0.112009	1.724936	-0.176329	-0.093941	1.601727	-0.108501	-0.071359	1.478517	-1.356342	-0.521128	10.964089	0.000000	0.000000	7.134319	0.172654	-4.387161	81.914758	-60.835540	-1.438814	129.865799	89.701098	-15.129870	23.736671	48.913088	-36.809580	-16.729026	132.294536	88.730890	-12.227068	13.269835
18.440678	2.721049	-4.513502	80.703494	0.118885	1.069514	0.086116	11.576532	0.204795	-5.679031	17.232135	0.300757	17.347225	1.932530	0.000000	7.644609	-2.016352	-25.433077	15.348437	0.267881	23.104589	16.071295	0.000000	-0.228591	0.003796	1.910723	-0.424516	0.005048	2.030144	-0.375552	0.009229	2.030144	-0.261257	0.009229	1.671883	-0.212270	0.007740	1.552463	-0.130617	0.005880	1.433043	-1.632803	0.042938	10.626870	0.000000	0.000000	5.900896	0.302837	-3.656003	90.898945	-60.676199	3.159237	129.690117	89.246451	-14.522905	24.781949	56.175179	-40.382130	-15.199979	132.559781	88.833259	-12.510351	13.670197
18.457627	2.877027	-4.355998	81.462134	0.117155	1.069908	0.084719	11.365194	0.143966	-6.390520	17.404989	0.303774	18.022579	2.201974	0.000000	7.518956	-1.995026	-24.698211	15.349200	0.267894	23.336526	16.025768	0.000000	-0.264748	0.050642	1.829122	-0.491664	0.067354	1.943442	-0.434955	0.123131	1.943442	-0.302581	0.123131	1.600482	-0.245845	0.103269	1.486162	-0.151277	0.078445	1.371842	-1.891069	0.572874	10.173028	0.000000	0.000000	4.597584	0.628720	-2.938298	99.876906	-60.188719	8.187493	129.211259	88.876985	-13.412957	26.032948	63.727780	-43.533024	-13.093219	132.469639	88.925770	-12.443142	14.579014
